<svg xmlns="http://www.w3.org/2000/svg" xmlns:v="https://svgstorm.com"
viewBox = "0 0 256 256"
width="256"
height="256">
<g fill="None" fill-opacity="0.0" stroke="#000000" stroke-opacity="0.00" stroke-width="0.3"><path d="
M 0.00 256.00 
L 256.00 256.00
L 256.00 0.00
L 0.00 0.00
L 0.00 256.00
M 188.00 181.00 
C 188.50 182.74 190.95 183.73 190.00 186.00
C 186.94 186.80 184.29 184.51 183.00 182.00
C 182.22 182.16 181.05 180.24 180.00 181.00
C 179.12 187.03 185.74 190.35 187.00 196.00
C 179.52 197.21 173.73 192.59 167.00 191.00
C 167.74 194.73 169.06 198.30 170.00 202.00
C 161.76 199.71 159.14 189.12 156.00 182.00
C 152.29 184.15 151.79 192.94 146.00 194.00
C 147.39 182.80 141.40 172.89 134.00 166.00
C 145.50 160.97 149.89 152.75 155.32 141.32 C 160.76 129.90 151.68 111.68 137.00 120.00
C 137.19 124.79 142.41 125.98 144.00 130.00
C 139.23 130.60 135.59 127.57 132.00 125.00
C 130.46 132.81 134.33 139.06 136.00 146.00
C 131.80 143.67 127.77 141.64 125.00 138.00
C 123.78 145.75 117.25 151.24 114.00 158.00
C 116.75 156.73 117.68 156.92 119.75 153.75 C 121.82 150.59 121.22 155.52 124.00 156.00
C 124.57 153.51 126.34 151.56 127.00 149.00
C 127.63 148.11 128.10 147.14 128.00 146.00
C 130.73 145.51 133.02 146.30 135.00 148.00
C 136.87 147.51 139.10 148.37 141.00 148.00
C 138.17 142.26 134.60 136.74 135.00 130.00
C 139.00 131.79 143.37 132.45 148.00 132.00
C 147.20 128.03 142.59 126.80 141.00 123.00
C 153.60 121.17 154.48 137.90 149.69 146.69 C 144.91 155.49 136.59 162.11 128.00 167.00
C 139.38 172.68 146.08 186.41 143.00 199.00
C 143.01 199.34 143.67 200.01 144.00 200.00
C 144.02 200.00 146.71 198.23 147.00 198.00
C 150.55 195.24 151.91 189.39 156.00 188.00
C 162.12 203.47 174.65 218.04 192.00 221.00
C 186.51 231.27 177.12 230.25 170.25 221.75 C 163.38 213.26 157.22 207.67 155.00 197.00
C 154.17 197.41 153.13 197.97 153.00 199.00
C 152.08 202.20 155.43 208.73 155.00 212.00 C 154.57 215.27 158.92 223.27 154.00 224.00
C 153.51 224.07 153.00 224.00 153.00 224.00
C 150.65 225.74 147.04 224.75 144.00 225.00
C 143.35 219.50 145.32 212.67 143.00 208.00
C 142.68 213.31 141.45 218.45 142.00 224.00
C 134.01 222.47 138.95 209.60 140.00 204.00
C 139.81 204.24 139.00 204.00 139.00 204.00
C 127.24 205.85 120.12 220.26 107.00 222.00
C 106.74 218.52 103.11 215.94 100.00 215.00
C 101.57 210.52 106.51 207.14 110.00 204.00
C 109.85 200.25 105.98 196.57 108.00 193.00
C 108.21 191.73 109.90 191.30 110.00 190.00
C 108.72 189.47 108.14 190.97 107.00 191.00
C 99.50 196.41 90.16 199.41 81.00 198.00
C 76.84 190.61 73.76 180.30 66.00 177.00
C 66.00 174.00 66.00 171.00 66.00 168.00
C 62.29 165.57 58.15 160.03 58.00 155.00
C 66.01 148.92 74.35 156.20 83.00 158.00
C 83.49 155.12 75.77 150.91 80.00 150.00
C 80.24 149.81 80.23 148.15 80.00 148.00
C 78.59 147.09 74.20 146.14 78.00 145.00
C 77.75 144.75 78.00 144.00 78.00 144.00
C 77.67 143.74 76.49 143.39 76.00 143.00
C 72.95 140.60 72.33 135.83 72.00 132.00
C 74.65 131.22 76.73 133.94 79.00 132.00
C 79.13 134.95 81.88 137.03 82.00 140.00
C 82.11 140.09 83.07 139.28 83.00 139.00
C 82.59 137.35 81.84 135.84 82.00 134.00
C 89.38 134.31 97.53 134.77 105.00 133.00
C 110.04 140.96 108.92 153.45 106.00 162.00
C 108.72 162.63 110.41 159.93 113.00 160.00
C 108.21 156.43 112.49 151.76 113.78 145.78 C 115.07 139.79 112.19 132.68 111.00 127.00
C 100.36 127.89 90.50 121.73 82.00 115.00
C 82.88 120.70 89.87 124.66 94.00 128.00
C 94.19 128.24 95.00 128.00 95.00 128.00
C 96.00 128.03 97.00 127.97 98.00 128.00
C 98.51 129.41 97.19 130.15 96.00 130.00
C 95.93 129.82 94.50 130.03 94.00 130.00
C 84.42 129.33 74.70 130.51 66.00 125.00
C 66.74 134.05 69.12 142.95 75.00 150.00
C 67.26 149.45 61.01 144.60 55.00 140.00
C 54.68 139.76 54.00 140.00 54.00 140.00
C 54.02 141.33 53.99 142.67 54.00 144.00
C 29.52 123.79 33.98 80.55 57.00 61.00
C 51.88 59.77 45.04 56.61 46.00 50.00
C 65.26 57.97 74.35 28.18 95.00 39.00
C 97.47 30.44 103.01 25.60 112.00 26.00
C 111.38 29.40 106.13 30.46 107.00 35.00
C 127.05 30.42 150.99 28.41 167.08 40.92 C 183.17 53.43 196.72 68.77 218.00 68.00
C 213.81 72.85 207.69 79.09 200.00 78.00
C 222.76 113.87 187.13 144.92 188.00 181.00 Z"/>
</g>
<g fill="None" fill-opacity="0.0" stroke="#FEFEFE" stroke-opacity="0.97" stroke-width="0.3"><path d="
M 54.00 140.00 
C 52.84 139.24 52.01 137.48 52.00 136.00
C 54.07 135.64 54.84 138.39 55.00 140.00
C 61.01 144.60 67.26 149.45 75.00 150.00
C 69.12 142.95 66.74 134.05 66.00 125.00
C 74.70 130.51 84.42 129.33 94.00 130.00
C 93.75 129.75 93.77 128.16 94.00 128.00
C 89.87 124.66 82.88 120.70 82.00 115.00
C 90.50 121.73 100.36 127.89 111.00 127.00
C 112.19 132.68 115.07 139.79 113.78 145.78 C 112.49 151.76 108.21 156.43 113.00 160.00
C 110.41 159.93 108.72 162.63 106.00 162.00
C 108.92 153.45 110.04 140.96 105.00 133.00
C 97.53 134.77 89.38 134.31 82.00 134.00
C 81.84 135.84 82.59 137.35 83.00 139.00
C 85.90 140.37 87.19 141.86 90.00 139.00
C 90.54 137.74 91.74 136.46 93.00 136.00
C 92.76 137.62 92.24 140.31 90.00 140.00
C 87.81 144.49 83.02 148.38 79.00 145.00
C 78.52 144.91 78.00 145.00 78.00 145.00
C 74.20 146.14 78.59 147.09 80.00 148.00
C 81.50 149.08 80.85 148.12 80.00 150.00
C 75.77 150.91 83.49 155.12 83.00 158.00
C 74.35 156.20 66.01 148.92 58.00 155.00
C 58.15 160.03 62.29 165.57 66.00 168.00
C 66.00 171.00 66.00 174.00 66.00 177.00
C 73.76 180.30 76.84 190.61 81.00 198.00
C 90.16 199.41 99.50 196.41 107.00 191.00
C 109.86 188.94 112.63 186.79 114.00 185.00
C 116.91 187.39 111.58 189.40 110.00 191.00
C 111.36 193.22 112.05 197.85 109.00 199.00
C 109.68 196.96 110.38 194.30 108.00 193.00
C 105.98 196.57 109.85 200.25 110.00 204.00
C 106.51 207.14 101.57 210.52 100.00 215.00
C 103.11 215.94 106.74 218.52 107.00 222.00
C 120.12 220.26 127.24 205.85 139.00 204.00
C 140.07 202.03 141.50 202.08 140.00 204.00
C 138.95 209.60 134.01 222.47 142.00 224.00
C 141.45 218.45 142.68 213.31 143.00 208.00
C 145.32 212.67 143.35 219.50 144.00 225.00
C 147.04 224.75 150.65 225.74 153.00 224.00
C 152.61 223.08 152.59 222.57 153.00 221.00
C 154.39 221.26 153.78 223.05 154.00 224.00
C 158.92 223.27 154.57 215.27 155.00 212.00 C 155.43 208.73 152.08 202.20 153.00 199.00
C 151.06 198.86 149.33 197.52 147.00 198.00
C 146.71 198.23 144.02 200.00 144.00 200.00
C 143.22 203.07 143.00 199.03 143.00 199.00
C 146.08 186.41 139.38 172.68 128.00 167.00
C 136.59 162.11 144.91 155.49 149.69 146.69 C 154.48 137.90 153.60 121.17 141.00 123.00
C 142.59 126.80 147.20 128.03 148.00 132.00
C 143.37 132.45 139.00 131.79 135.00 130.00
C 134.60 136.74 138.17 142.26 141.00 148.00
C 139.10 148.37 136.87 147.51 135.00 148.00
C 133.72 148.33 128.52 152.41 127.00 149.00
C 126.34 151.56 124.57 153.51 124.00 156.00
C 121.22 155.52 121.82 150.59 119.75 153.75 C 117.68 156.92 116.75 156.73 114.00 158.00
C 117.25 151.24 123.78 145.75 125.00 138.00
C 127.77 141.64 131.80 143.67 136.00 146.00
C 134.33 139.06 130.46 132.81 132.00 125.00
C 135.59 127.57 139.23 130.60 144.00 130.00
C 142.41 125.98 137.19 124.79 137.00 120.00
C 151.68 111.68 160.76 129.90 155.32 141.32 C 149.89 152.75 145.50 160.97 134.00 166.00
C 141.40 172.89 147.39 182.80 146.00 194.00
C 151.79 192.94 152.29 184.15 156.00 182.00
C 159.14 189.12 161.76 199.71 170.00 202.00
C 169.06 198.30 167.74 194.73 167.00 191.00
C 173.73 192.59 179.52 197.21 187.00 196.00
C 185.74 190.35 179.12 187.03 180.00 181.00
C 181.05 180.24 182.22 182.16 183.00 182.00
C 183.99 181.79 187.07 180.71 188.00 181.00
C 187.13 144.92 222.76 113.87 200.00 78.00
C 207.69 79.09 213.81 72.85 218.00 68.00
C 196.72 68.77 183.17 53.43 167.08 40.92 C 150.99 28.41 127.05 30.42 107.00 35.00
C 106.13 30.46 111.38 29.40 112.00 26.00
C 103.01 25.60 97.47 30.44 95.00 39.00
C 74.35 28.18 65.26 57.97 46.00 50.00
C 45.04 56.61 51.88 59.77 57.00 61.00
C 33.98 80.55 29.52 123.79 54.00 144.00
C 53.99 142.67 54.02 141.33 54.00 140.00
M 60.00 59.00 
C 60.73 59.73 59.29 61.67 58.29 60.63 C 57.30 59.60 59.45 58.45 60.00 59.00
M 79.00 111.00 
C 84.13 113.22 79.06 116.68 79.00 111.00
M 135.00 155.00 
C 136.36 163.91 126.03 153.73 135.00 155.00
M 85.00 157.00 
C 86.06 158.06 83.76 159.39 83.29 158.63 C 82.83 157.88 84.90 156.90 85.00 157.00
M 124.00 157.00 
C 123.96 156.96 123.06 159.50 122.25 158.59 C 121.43 157.67 123.37 156.37 124.00 157.00
M 156.00 179.00 
C 156.60 179.60 155.87 181.21 154.74 180.19 C 153.61 179.16 155.54 178.54 156.00 179.00
M 144.00 207.00 
C 140.99 202.52 147.71 203.33 144.00 207.00 Z"/>
</g>
<g fill="None" fill-opacity="0.0" stroke="#FFFFFF" stroke-opacity="0.66" stroke-width="0.3"><path d="
M 60.00 59.00 
C 59.45 58.45 57.30 59.60 58.29 60.63 C 59.29 61.67 60.73 59.73 60.00 59.00 Z"/>
</g>
<g fill="None" fill-opacity="0.0" stroke="#FFFFFF" stroke-opacity="0.58" stroke-width="0.3"><path d="
M 79.00 111.00 
C 79.06 116.68 84.13 113.22 79.00 111.00 Z"/>
</g>
<g fill="None" fill-opacity="0.0" stroke="#FFFFFF" stroke-opacity="0.76" stroke-width="0.3"><path d="
M 94.00 130.00 
C 94.50 130.03 95.93 129.82 96.00 130.00
C 95.93 129.83 95.03 128.02 95.00 128.00
C 95.00 128.00 94.19 128.24 94.00 128.00
C 93.77 128.16 93.75 129.75 94.00 130.00 Z"/>
</g>
<g fill="None" fill-opacity="0.0" stroke="#FFFFFF" stroke-opacity="0.38" stroke-width="0.3"><path d="
M 96.00 130.00 
C 97.19 130.15 98.51 129.41 98.00 128.00
C 97.00 127.97 96.00 128.03 95.00 128.00
C 95.03 128.02 95.93 129.83 96.00 130.00 Z"/>
</g>
<g fill="None" fill-opacity="0.0" stroke="#FFFFFF" stroke-opacity="0.88" stroke-width="0.3"><path d="
M 76.00 143.00 
C 76.12 142.71 80.50 143.00 81.00 143.00
C 81.50 143.00 82.00 143.00 82.00 143.00
C 82.21 142.80 82.04 140.33 82.00 140.00
C 81.88 137.03 79.13 134.95 79.00 132.00
C 76.73 133.94 74.65 131.22 72.00 132.00
C 72.33 135.83 72.95 140.60 76.00 143.00 Z"/>
</g>
<g fill="None" fill-opacity="0.0" stroke="#FFFFFF" stroke-opacity="0.52" stroke-width="0.3"><path d="
M 54.00 140.00 
C 54.00 140.00 54.68 139.76 55.00 140.00
C 54.84 138.39 54.07 135.64 52.00 136.00
C 52.01 137.48 52.84 139.24 54.00 140.00 Z"/>
</g>
<g fill="None" fill-opacity="0.0" stroke="#FFFFFF" stroke-opacity="0.55" stroke-width="0.3"><path d="
M 90.00 139.00 
C 89.82 139.42 90.00 140.00 90.00 140.00
C 92.24 140.31 92.76 137.62 93.00 136.00
C 91.74 136.46 90.54 137.74 90.00 139.00 Z"/>
</g>
<g fill="None" fill-opacity="0.0" stroke="#000000" stroke-opacity="0.15" stroke-width="0.3"><path d="
M 82.00 140.00 
C 82.04 140.33 82.21 142.80 82.00 143.00
C 82.81 144.89 80.17 145.22 79.00 145.00
C 83.02 148.38 87.81 144.49 90.00 140.00
C 90.00 140.00 89.82 139.42 90.00 139.00
C 87.19 141.86 85.90 140.37 83.00 139.00
C 83.07 139.28 82.11 140.09 82.00 140.00 Z"/>
</g>
<g fill="None" fill-opacity="0.0" stroke="#FFFFFF" stroke-opacity="0.64" stroke-width="0.3"><path d="
M 78.00 144.00 
C 79.59 143.49 79.77 144.15 81.00 143.00
C 80.50 143.00 76.12 142.71 76.00 143.00
C 76.49 143.39 77.67 143.74 78.00 144.00 Z"/>
</g>
<g fill="None" fill-opacity="0.0" stroke="#FFFFFF" stroke-opacity="0.06" stroke-width="0.3"><path d="
M 78.00 144.00 
C 78.00 144.00 77.75 144.75 78.00 145.00
C 78.00 145.00 78.52 144.91 79.00 145.00
C 80.17 145.22 82.81 144.89 82.00 143.00
C 82.00 143.00 81.50 143.00 81.00 143.00
C 79.77 144.15 79.59 143.49 78.00 144.00 Z"/>
</g>
<g fill="None" fill-opacity="0.0" stroke="#FFFFFF" stroke-opacity="0.82" stroke-width="0.3"><path d="
M 127.00 149.00 
C 128.52 152.41 133.72 148.33 135.00 148.00
C 133.02 146.30 130.73 145.51 128.00 146.00
C 128.10 147.14 127.63 148.11 127.00 149.00 Z"/>
</g>
<g fill="None" fill-opacity="0.0" stroke="#FFFFFF" stroke-opacity="0.56" stroke-width="0.3"><path d="
M 80.00 148.00 
C 80.23 148.15 80.24 149.81 80.00 150.00
C 80.85 148.12 81.50 149.08 80.00 148.00 Z"/>
</g>
<g fill="None" fill-opacity="0.0" stroke="#000000" stroke-opacity="0.00" stroke-width="0.3"><path d="
M 135.00 155.00 
C 126.03 153.73 136.36 163.91 135.00 155.00 Z"/>
</g>
<g fill="None" fill-opacity="0.0" stroke="#FFFFFF" stroke-opacity="0.70" stroke-width="0.3"><path d="
M 85.00 157.00 
C 84.90 156.90 82.83 157.88 83.29 158.63 C 83.76 159.39 86.06 158.06 85.00 157.00 Z"/>
</g>
<g fill="None" fill-opacity="0.0" stroke="#FFFFFF" stroke-opacity="0.65" stroke-width="0.3"><path d="
M 124.00 157.00 
C 123.37 156.37 121.43 157.67 122.25 158.59 C 123.06 159.50 123.96 156.96 124.00 157.00 Z"/>
</g>
<g fill="None" fill-opacity="0.0" stroke="#FFFFFF" stroke-opacity="0.43" stroke-width="0.3"><path d="
M 156.00 179.00 
C 155.54 178.54 153.61 179.16 154.74 180.19 C 155.87 181.21 156.60 179.60 156.00 179.00 Z"/>
</g>
<g fill="None" fill-opacity="0.0" stroke="#FFFFFF" stroke-opacity="0.80" stroke-width="0.3"><path d="
M 183.00 182.00 
C 184.29 184.51 186.94 186.80 190.00 186.00
C 190.95 183.73 188.50 182.74 188.00 181.00
C 187.07 180.71 183.99 181.79 183.00 182.00 Z"/>
</g>
<g fill="None" fill-opacity="0.0" stroke="#F3F3F3" stroke-opacity="0.76" stroke-width="0.3"><path d="
M 107.00 191.00 
C 108.14 190.97 108.72 189.47 110.00 190.00
C 109.90 191.30 108.21 191.73 108.00 193.00
C 110.38 194.30 109.68 196.96 109.00 199.00
C 112.05 197.85 111.36 193.22 110.00 191.00
C 111.58 189.40 116.91 187.39 114.00 185.00
C 112.63 186.79 109.86 188.94 107.00 191.00 Z"/>
</g>
<g fill="None" fill-opacity="0.0" stroke="#FFFFFF" stroke-opacity="0.89" stroke-width="0.3"><path d="
M 147.00 198.00 
C 149.33 197.52 151.06 198.86 153.00 199.00
C 153.13 197.97 154.17 197.41 155.00 197.00
C 157.22 207.67 163.38 213.26 170.25 221.75 C 177.12 230.25 186.51 231.27 192.00 221.00
C 174.65 218.04 162.12 203.47 156.00 188.00
C 151.91 189.39 150.55 195.24 147.00 198.00 Z"/>
</g>
<g fill="None" fill-opacity="0.0" stroke="#FFFFFF" stroke-opacity="0.47" stroke-width="0.3"><path d="
M 144.00 200.00 
C 143.67 200.01 143.01 199.34 143.00 199.00
C 143.00 199.03 143.22 203.07 144.00 200.00 Z"/>
</g>
<g fill="None" fill-opacity="0.0" stroke="#FFFFFF" stroke-opacity="0.45" stroke-width="0.3"><path d="
M 139.00 204.00 
C 139.00 204.00 139.81 204.24 140.00 204.00
C 141.50 202.08 140.07 202.03 139.00 204.00 Z"/>
</g>
<g fill="None" fill-opacity="0.0" stroke="#FFFFFF" stroke-opacity="0.58" stroke-width="0.3"><path d="
M 144.00 207.00 
C 147.71 203.33 140.99 202.52 144.00 207.00 Z"/>
</g>
<g fill="None" fill-opacity="0.0" stroke="#FFFFFF" stroke-opacity="0.45" stroke-width="0.3"><path d="
M 153.00 224.00 
C 153.00 224.00 153.51 224.07 154.00 224.00
C 153.78 223.05 154.39 221.26 153.00 221.00
C 152.59 222.57 152.61 223.08 153.00 224.00 Z"/>
</g>
<g fill="#000000" fill-opacity="0.00" stroke="None">
<path d="
M 0.00 256.00 
L 256.00 256.00
L 256.00 0.00
L 0.00 0.00
L 0.00 256.00
M 188.00 181.00 
C 188.50 182.74 190.95 183.73 190.00 186.00
C 186.94 186.80 184.29 184.51 183.00 182.00
C 182.22 182.16 181.05 180.24 180.00 181.00
C 179.12 187.03 185.74 190.35 187.00 196.00
C 179.52 197.21 173.73 192.59 167.00 191.00
C 167.74 194.73 169.06 198.30 170.00 202.00
C 161.76 199.71 159.14 189.12 156.00 182.00
C 152.29 184.15 151.79 192.94 146.00 194.00
C 147.39 182.80 141.40 172.89 134.00 166.00
C 145.50 160.97 149.89 152.75 155.32 141.32 C 160.76 129.90 151.68 111.68 137.00 120.00
C 137.19 124.79 142.41 125.98 144.00 130.00
C 139.23 130.60 135.59 127.57 132.00 125.00
C 130.46 132.81 134.33 139.06 136.00 146.00
C 131.80 143.67 127.77 141.64 125.00 138.00
C 123.78 145.75 117.25 151.24 114.00 158.00
C 116.75 156.73 117.68 156.92 119.75 153.75 C 121.82 150.59 121.22 155.52 124.00 156.00
C 124.57 153.51 126.34 151.56 127.00 149.00
C 127.63 148.11 128.10 147.14 128.00 146.00
C 130.73 145.51 133.02 146.30 135.00 148.00
C 136.87 147.51 139.10 148.37 141.00 148.00
C 138.17 142.26 134.60 136.74 135.00 130.00
C 139.00 131.79 143.37 132.45 148.00 132.00
C 147.20 128.03 142.59 126.80 141.00 123.00
C 153.60 121.17 154.48 137.90 149.69 146.69 C 144.91 155.49 136.59 162.11 128.00 167.00
C 139.38 172.68 146.08 186.41 143.00 199.00
C 143.01 199.34 143.67 200.01 144.00 200.00
C 144.02 200.00 146.71 198.23 147.00 198.00
C 150.55 195.24 151.91 189.39 156.00 188.00
C 162.12 203.47 174.65 218.04 192.00 221.00
C 186.51 231.27 177.12 230.25 170.25 221.75 C 163.38 213.26 157.22 207.67 155.00 197.00
C 154.17 197.41 153.13 197.97 153.00 199.00
C 152.08 202.20 155.43 208.73 155.00 212.00 C 154.57 215.27 158.92 223.27 154.00 224.00
C 153.51 224.07 153.00 224.00 153.00 224.00
C 150.65 225.74 147.04 224.75 144.00 225.00
C 143.35 219.50 145.32 212.67 143.00 208.00
C 142.68 213.31 141.45 218.45 142.00 224.00
C 134.01 222.47 138.95 209.60 140.00 204.00
C 139.81 204.24 139.00 204.00 139.00 204.00
C 127.24 205.85 120.12 220.26 107.00 222.00
C 106.74 218.52 103.11 215.94 100.00 215.00
C 101.57 210.52 106.51 207.14 110.00 204.00
C 109.85 200.25 105.98 196.57 108.00 193.00
C 108.21 191.73 109.90 191.30 110.00 190.00
C 108.72 189.47 108.14 190.97 107.00 191.00
C 99.50 196.41 90.16 199.41 81.00 198.00
C 76.84 190.61 73.76 180.30 66.00 177.00
C 66.00 174.00 66.00 171.00 66.00 168.00
C 62.29 165.57 58.15 160.03 58.00 155.00
C 66.01 148.92 74.35 156.20 83.00 158.00
C 83.49 155.12 75.77 150.91 80.00 150.00
C 80.24 149.81 80.23 148.15 80.00 148.00
C 78.59 147.09 74.20 146.14 78.00 145.00
C 77.75 144.75 78.00 144.00 78.00 144.00
C 77.67 143.74 76.49 143.39 76.00 143.00
C 72.95 140.60 72.33 135.83 72.00 132.00
C 74.65 131.22 76.73 133.94 79.00 132.00
C 79.13 134.95 81.88 137.03 82.00 140.00
C 82.11 140.09 83.07 139.28 83.00 139.00
C 82.59 137.35 81.84 135.84 82.00 134.00
C 89.38 134.31 97.53 134.77 105.00 133.00
C 110.04 140.96 108.92 153.45 106.00 162.00
C 108.72 162.63 110.41 159.93 113.00 160.00
C 108.21 156.43 112.49 151.76 113.78 145.78 C 115.07 139.79 112.19 132.68 111.00 127.00
C 100.36 127.89 90.50 121.73 82.00 115.00
C 82.88 120.70 89.87 124.66 94.00 128.00
C 94.19 128.24 95.00 128.00 95.00 128.00
C 96.00 128.03 97.00 127.97 98.00 128.00
C 98.51 129.41 97.19 130.15 96.00 130.00
C 95.93 129.82 94.50 130.03 94.00 130.00
C 84.42 129.33 74.70 130.51 66.00 125.00
C 66.74 134.05 69.12 142.95 75.00 150.00
C 67.26 149.45 61.01 144.60 55.00 140.00
C 54.68 139.76 54.00 140.00 54.00 140.00
C 54.02 141.33 53.99 142.67 54.00 144.00
C 29.52 123.79 33.98 80.55 57.00 61.00
C 51.88 59.77 45.04 56.61 46.00 50.00
C 65.26 57.97 74.35 28.18 95.00 39.00
C 97.47 30.44 103.01 25.60 112.00 26.00
C 111.38 29.40 106.13 30.46 107.00 35.00
C 127.05 30.42 150.99 28.41 167.08 40.92 C 183.17 53.43 196.72 68.77 218.00 68.00
C 213.81 72.85 207.69 79.09 200.00 78.00
C 222.76 113.87 187.13 144.92 188.00 181.00 Z"/>
</g>
<g fill="#FEFEFE" fill-opacity="0.97" stroke="None">
<path d="
M 54.00 140.00 
C 52.84 139.24 52.01 137.48 52.00 136.00
C 54.07 135.64 54.84 138.39 55.00 140.00
C 61.01 144.60 67.26 149.45 75.00 150.00
C 69.12 142.95 66.74 134.05 66.00 125.00
C 74.70 130.51 84.42 129.33 94.00 130.00
C 93.75 129.75 93.77 128.16 94.00 128.00
C 89.87 124.66 82.88 120.70 82.00 115.00
C 90.50 121.73 100.36 127.89 111.00 127.00
C 112.19 132.68 115.07 139.79 113.78 145.78 C 112.49 151.76 108.21 156.43 113.00 160.00
C 110.41 159.93 108.72 162.63 106.00 162.00
C 108.92 153.45 110.04 140.96 105.00 133.00
C 97.53 134.77 89.38 134.31 82.00 134.00
C 81.84 135.84 82.59 137.35 83.00 139.00
C 85.90 140.37 87.19 141.86 90.00 139.00
C 90.54 137.74 91.74 136.46 93.00 136.00
C 92.76 137.62 92.24 140.31 90.00 140.00
C 87.81 144.49 83.02 148.38 79.00 145.00
C 78.52 144.91 78.00 145.00 78.00 145.00
C 74.20 146.14 78.59 147.09 80.00 148.00
C 81.50 149.08 80.85 148.12 80.00 150.00
C 75.77 150.91 83.49 155.12 83.00 158.00
C 74.35 156.20 66.01 148.92 58.00 155.00
C 58.15 160.03 62.29 165.57 66.00 168.00
C 66.00 171.00 66.00 174.00 66.00 177.00
C 73.76 180.30 76.84 190.61 81.00 198.00
C 90.16 199.41 99.50 196.41 107.00 191.00
C 109.86 188.94 112.63 186.79 114.00 185.00
C 116.91 187.39 111.58 189.40 110.00 191.00
C 111.36 193.22 112.05 197.85 109.00 199.00
C 109.68 196.96 110.38 194.30 108.00 193.00
C 105.98 196.57 109.85 200.25 110.00 204.00
C 106.51 207.14 101.57 210.52 100.00 215.00
C 103.11 215.94 106.74 218.52 107.00 222.00
C 120.12 220.26 127.24 205.85 139.00 204.00
C 140.07 202.03 141.50 202.08 140.00 204.00
C 138.95 209.60 134.01 222.47 142.00 224.00
C 141.45 218.45 142.68 213.31 143.00 208.00
C 145.32 212.67 143.35 219.50 144.00 225.00
C 147.04 224.75 150.65 225.74 153.00 224.00
C 152.61 223.08 152.59 222.57 153.00 221.00
C 154.39 221.26 153.78 223.05 154.00 224.00
C 158.92 223.27 154.57 215.27 155.00 212.00 C 155.43 208.73 152.08 202.20 153.00 199.00
C 151.06 198.86 149.33 197.52 147.00 198.00
C 146.71 198.23 144.02 200.00 144.00 200.00
C 143.22 203.07 143.00 199.03 143.00 199.00
C 146.08 186.41 139.38 172.68 128.00 167.00
C 136.59 162.11 144.91 155.49 149.69 146.69 C 154.48 137.90 153.60 121.17 141.00 123.00
C 142.59 126.80 147.20 128.03 148.00 132.00
C 143.37 132.45 139.00 131.79 135.00 130.00
C 134.60 136.74 138.17 142.26 141.00 148.00
C 139.10 148.37 136.87 147.51 135.00 148.00
C 133.72 148.33 128.52 152.41 127.00 149.00
C 126.34 151.56 124.57 153.51 124.00 156.00
C 121.22 155.52 121.82 150.59 119.75 153.75 C 117.68 156.92 116.75 156.73 114.00 158.00
C 117.25 151.24 123.78 145.75 125.00 138.00
C 127.77 141.64 131.80 143.67 136.00 146.00
C 134.33 139.06 130.46 132.81 132.00 125.00
C 135.59 127.57 139.23 130.60 144.00 130.00
C 142.41 125.98 137.19 124.79 137.00 120.00
C 151.68 111.68 160.76 129.90 155.32 141.32 C 149.89 152.75 145.50 160.97 134.00 166.00
C 141.40 172.89 147.39 182.80 146.00 194.00
C 151.79 192.94 152.29 184.15 156.00 182.00
C 159.14 189.12 161.76 199.71 170.00 202.00
C 169.06 198.30 167.74 194.73 167.00 191.00
C 173.73 192.59 179.52 197.21 187.00 196.00
C 185.74 190.35 179.12 187.03 180.00 181.00
C 181.05 180.24 182.22 182.16 183.00 182.00
C 183.99 181.79 187.07 180.71 188.00 181.00
C 187.13 144.92 222.76 113.87 200.00 78.00
C 207.69 79.09 213.81 72.85 218.00 68.00
C 196.72 68.77 183.17 53.43 167.08 40.92 C 150.99 28.41 127.05 30.42 107.00 35.00
C 106.13 30.46 111.38 29.40 112.00 26.00
C 103.01 25.60 97.47 30.44 95.00 39.00
C 74.35 28.18 65.26 57.97 46.00 50.00
C 45.04 56.61 51.88 59.77 57.00 61.00
C 33.98 80.55 29.52 123.79 54.00 144.00
C 53.99 142.67 54.02 141.33 54.00 140.00
M 60.00 59.00 
C 60.73 59.73 59.29 61.67 58.29 60.63 C 57.30 59.60 59.45 58.45 60.00 59.00
M 79.00 111.00 
C 84.13 113.22 79.06 116.68 79.00 111.00
M 135.00 155.00 
C 136.36 163.91 126.03 153.73 135.00 155.00
M 85.00 157.00 
C 86.06 158.06 83.76 159.39 83.29 158.63 C 82.83 157.88 84.90 156.90 85.00 157.00
M 124.00 157.00 
C 123.96 156.96 123.06 159.50 122.25 158.59 C 121.43 157.67 123.37 156.37 124.00 157.00
M 156.00 179.00 
C 156.60 179.60 155.87 181.21 154.74 180.19 C 153.61 179.16 155.54 178.54 156.00 179.00
M 144.00 207.00 
C 140.99 202.52 147.71 203.33 144.00 207.00 Z"/>
</g>
<g fill="#FFFFFF" fill-opacity="0.66" stroke="None">
<path d="
M 60.00 59.00 
C 59.45 58.45 57.30 59.60 58.29 60.63 C 59.29 61.67 60.73 59.73 60.00 59.00 Z"/>
</g>
<g fill="#FFFFFF" fill-opacity="0.58" stroke="None">
<path d="
M 79.00 111.00 
C 79.06 116.68 84.13 113.22 79.00 111.00 Z"/>
</g>
<g fill="#FFFFFF" fill-opacity="0.76" stroke="None">
<path d="
M 94.00 130.00 
C 94.50 130.03 95.93 129.82 96.00 130.00
C 95.93 129.83 95.03 128.02 95.00 128.00
C 95.00 128.00 94.19 128.24 94.00 128.00
C 93.77 128.16 93.75 129.75 94.00 130.00 Z"/>
</g>
<g fill="#FFFFFF" fill-opacity="0.38" stroke="None">
<path d="
M 96.00 130.00 
C 97.19 130.15 98.51 129.41 98.00 128.00
C 97.00 127.97 96.00 128.03 95.00 128.00
C 95.03 128.02 95.93 129.83 96.00 130.00 Z"/>
</g>
<g fill="#FFFFFF" fill-opacity="0.88" stroke="None">
<path d="
M 76.00 143.00 
C 76.12 142.71 80.50 143.00 81.00 143.00
C 81.50 143.00 82.00 143.00 82.00 143.00
C 82.21 142.80 82.04 140.33 82.00 140.00
C 81.88 137.03 79.13 134.95 79.00 132.00
C 76.73 133.94 74.65 131.22 72.00 132.00
C 72.33 135.83 72.95 140.60 76.00 143.00 Z"/>
</g>
<g fill="#FFFFFF" fill-opacity="0.52" stroke="None">
<path d="
M 54.00 140.00 
C 54.00 140.00 54.68 139.76 55.00 140.00
C 54.84 138.39 54.07 135.64 52.00 136.00
C 52.01 137.48 52.84 139.24 54.00 140.00 Z"/>
</g>
<g fill="#FFFFFF" fill-opacity="0.55" stroke="None">
<path d="
M 90.00 139.00 
C 89.82 139.42 90.00 140.00 90.00 140.00
C 92.24 140.31 92.76 137.62 93.00 136.00
C 91.74 136.46 90.54 137.74 90.00 139.00 Z"/>
</g>
<g fill="#000000" fill-opacity="0.15" stroke="None">
<path d="
M 82.00 140.00 
C 82.04 140.33 82.21 142.80 82.00 143.00
C 82.81 144.89 80.17 145.22 79.00 145.00
C 83.02 148.38 87.81 144.49 90.00 140.00
C 90.00 140.00 89.82 139.42 90.00 139.00
C 87.19 141.86 85.90 140.37 83.00 139.00
C 83.07 139.28 82.11 140.09 82.00 140.00 Z"/>
</g>
<g fill="#FFFFFF" fill-opacity="0.64" stroke="None">
<path d="
M 78.00 144.00 
C 79.59 143.49 79.77 144.15 81.00 143.00
C 80.50 143.00 76.12 142.71 76.00 143.00
C 76.49 143.39 77.67 143.74 78.00 144.00 Z"/>
</g>
<g fill="#FFFFFF" fill-opacity="0.06" stroke="None">
<path d="
M 78.00 144.00 
C 78.00 144.00 77.75 144.75 78.00 145.00
C 78.00 145.00 78.52 144.91 79.00 145.00
C 80.17 145.22 82.81 144.89 82.00 143.00
C 82.00 143.00 81.50 143.00 81.00 143.00
C 79.77 144.15 79.59 143.49 78.00 144.00 Z"/>
</g>
<g fill="#FFFFFF" fill-opacity="0.82" stroke="None">
<path d="
M 127.00 149.00 
C 128.52 152.41 133.72 148.33 135.00 148.00
C 133.02 146.30 130.73 145.51 128.00 146.00
C 128.10 147.14 127.63 148.11 127.00 149.00 Z"/>
</g>
<g fill="#FFFFFF" fill-opacity="0.56" stroke="None">
<path d="
M 80.00 148.00 
C 80.23 148.15 80.24 149.81 80.00 150.00
C 80.85 148.12 81.50 149.08 80.00 148.00 Z"/>
</g>
<g fill="#000000" fill-opacity="0.00" stroke="None">
<path d="
M 135.00 155.00 
C 126.03 153.73 136.36 163.91 135.00 155.00 Z"/>
</g>
<g fill="#FFFFFF" fill-opacity="0.70" stroke="None">
<path d="
M 85.00 157.00 
C 84.90 156.90 82.83 157.88 83.29 158.63 C 83.76 159.39 86.06 158.06 85.00 157.00 Z"/>
</g>
<g fill="#FFFFFF" fill-opacity="0.65" stroke="None">
<path d="
M 124.00 157.00 
C 123.37 156.37 121.43 157.67 122.25 158.59 C 123.06 159.50 123.96 156.96 124.00 157.00 Z"/>
</g>
<g fill="#FFFFFF" fill-opacity="0.43" stroke="None">
<path d="
M 156.00 179.00 
C 155.54 178.54 153.61 179.16 154.74 180.19 C 155.87 181.21 156.60 179.60 156.00 179.00 Z"/>
</g>
<g fill="#FFFFFF" fill-opacity="0.80" stroke="None">
<path d="
M 183.00 182.00 
C 184.29 184.51 186.94 186.80 190.00 186.00
C 190.95 183.73 188.50 182.74 188.00 181.00
C 187.07 180.71 183.99 181.79 183.00 182.00 Z"/>
</g>
<g fill="#F3F3F3" fill-opacity="0.76" stroke="None">
<path d="
M 107.00 191.00 
C 108.14 190.97 108.72 189.47 110.00 190.00
C 109.90 191.30 108.21 191.73 108.00 193.00
C 110.38 194.30 109.68 196.96 109.00 199.00
C 112.05 197.85 111.36 193.22 110.00 191.00
C 111.58 189.40 116.91 187.39 114.00 185.00
C 112.63 186.79 109.86 188.94 107.00 191.00 Z"/>
</g>
<g fill="#FFFFFF" fill-opacity="0.89" stroke="None">
<path d="
M 147.00 198.00 
C 149.33 197.52 151.06 198.86 153.00 199.00
C 153.13 197.97 154.17 197.41 155.00 197.00
C 157.22 207.67 163.38 213.26 170.25 221.75 C 177.12 230.25 186.51 231.27 192.00 221.00
C 174.65 218.04 162.12 203.47 156.00 188.00
C 151.91 189.39 150.55 195.24 147.00 198.00 Z"/>
</g>
<g fill="#FFFFFF" fill-opacity="0.47" stroke="None">
<path d="
M 144.00 200.00 
C 143.67 200.01 143.01 199.34 143.00 199.00
C 143.00 199.03 143.22 203.07 144.00 200.00 Z"/>
</g>
<g fill="#FFFFFF" fill-opacity="0.45" stroke="None">
<path d="
M 139.00 204.00 
C 139.00 204.00 139.81 204.24 140.00 204.00
C 141.50 202.08 140.07 202.03 139.00 204.00 Z"/>
</g>
<g fill="#FFFFFF" fill-opacity="0.58" stroke="None">
<path d="
M 144.00 207.00 
C 147.71 203.33 140.99 202.52 144.00 207.00 Z"/>
</g>
<g fill="#FFFFFF" fill-opacity="0.45" stroke="None">
<path d="
M 153.00 224.00 
C 153.00 224.00 153.51 224.07 154.00 224.00
C 153.78 223.05 154.39 221.26 153.00 221.00
C 152.59 222.57 152.61 223.08 153.00 224.00 Z"/>
</g>
</svg>