<svg xmlns="http://www.w3.org/2000/svg" xmlns:v="https://svgstorm.com"
viewBox = "0 0 256 256"
width="256"
height="256">
<g fill="None" fill-opacity="0.0" stroke="#000000" stroke-opacity="0.00" stroke-width="0.3"><path d="
M 0.00 256.00 
L 256.00 256.00
L 256.00 0.00
L 0.00 0.00
L 0.00 256.00
M 130.00 18.00 
C 138.83 59.92 155.08 97.48 195.00 117.00
C 195.68 103.13 185.37 93.60 179.23 83.77 C 173.10 73.93 160.02 72.08 153.00 63.00
C 150.14 59.31 148.57 54.20 147.00 50.00
C 150.79 48.65 151.70 52.25 155.00 52.00
C 160.90 54.37 165.37 56.92 171.08 59.92 C 176.79 62.92 179.68 66.93 185.25 70.75 C 190.82 74.57 191.66 80.73 195.97 85.03 C 200.29 89.32 200.74 96.61 204.32 101.68 C 207.90 106.75 205.73 117.37 209.00 122.00
C 217.17 124.55 225.75 124.66 234.00 127.00
C 235.23 127.35 236.74 126.73 238.00 127.00
C 238.63 129.53 235.47 128.90 234.00 129.00
C 215.90 134.13 191.47 135.57 177.25 149.25 C 163.03 162.94 148.75 174.54 145.00 193.00
C 148.82 189.50 158.15 190.60 163.03 186.03 C 167.90 181.45 174.03 178.38 178.68 173.68 C 183.34 168.98 186.77 162.98 189.92 156.92 C 193.08 150.87 201.01 148.84 207.00 146.00
C 200.21 179.07 170.42 203.75 138.00 208.00
C 134.79 217.47 132.04 227.01 130.00 238.00
C 129.63 240.00 131.31 244.22 128.00 244.00
C 128.00 241.33 128.00 238.67 128.00 236.00
C 128.00 226.85 125.22 216.13 123.22 207.78 C 121.22 199.43 117.50 193.84 114.69 186.30 C 111.89 178.77 107.02 174.29 102.25 166.75 C 97.47 159.21 90.55 156.64 84.92 150.08 C 79.29 143.53 69.07 143.44 63.00 138.00
C 62.17 153.85 73.53 165.91 82.77 176.23 C 92.01 186.55 110.15 189.61 112.00 206.00
C 79.68 199.73 50.73 169.83 50.00 134.00
C 40.48 131.46 30.50 128.67 20.00 129.00
C 28.63 125.07 43.52 125.38 53.68 121.68 C 63.83 117.97 74.07 114.62 82.23 108.23 C 90.39 101.84 97.74 96.25 103.75 87.75 C 109.76 79.25 115.70 70.61 118.00 62.00
C 112.51 65.51 102.44 64.46 96.92 68.92 C 91.40 73.38 85.38 75.75 80.75 81.75 C 76.12 87.76 71.16 90.69 68.74 97.74 C 66.33 104.80 59.13 108.83 52.00 110.00
C 58.30 75.92 88.09 51.38 122.00 48.00
C 124.26 39.66 127.79 29.65 128.00 19.00
C 128.05 16.67 127.96 14.33 128.00 12.00
C 131.23 11.65 129.57 16.11 130.00 18.00 Z"/>
</g>
<g fill="None" fill-opacity="0.0" stroke="#FFFFFF" stroke-opacity="0.42" stroke-width="0.3"><path d="
M 128.00 19.00 
C 128.20 18.57 129.86 18.28 130.00 18.00
C 129.57 16.11 131.23 11.65 128.00 12.00
C 127.96 14.33 128.05 16.67 128.00 19.00 Z"/>
</g>
<g fill="None" fill-opacity="0.0" stroke="#FFFFFF" stroke-opacity="0.95" stroke-width="0.3"><path d="
M 128.00 19.00 
C 127.79 29.65 124.26 39.66 122.00 48.00
C 120.57 53.28 119.80 57.37 118.00 62.00
C 115.70 70.61 109.76 79.25 103.75 87.75 C 97.74 96.25 90.39 101.84 82.23 108.23 C 74.07 114.62 63.83 117.97 53.68 121.68 C 43.52 125.38 28.63 125.07 20.00 129.00
C 30.50 128.67 40.48 131.46 50.00 134.00
C 53.73 135.00 64.24 135.01 64.00 130.00
C 61.89 129.32 61.76 128.51 62.00 126.00
C 70.92 125.34 80.68 122.22 87.70 117.70 C 94.73 113.19 102.52 109.52 107.70 103.70 C 112.89 97.89 115.59 88.84 120.31 82.31 C 125.02 75.77 122.57 61.21 133.00 61.00
C 134.85 69.39 136.97 76.65 141.26 83.74 C 145.54 90.84 146.57 95.96 152.75 101.25 C 158.92 106.55 160.77 111.07 168.23 114.77 C 175.69 118.48 178.07 122.05 189.00 124.00 C 199.93 125.94 192.72 131.38 184.93 132.93 C 177.13 134.48 171.34 138.55 165.32 142.32 C 159.30 146.09 153.85 153.15 149.23 158.23 C 144.61 163.32 140.38 172.85 138.03 178.03 C 135.69 183.21 131.92 199.80 126.70 192.30 C 121.47 184.80 123.50 176.12 118.08 168.92 C 112.65 161.73 110.85 157.13 106.29 151.70 C 101.73 146.26 94.97 142.99 88.30 138.70 C 81.64 134.40 72.79 131.88 65.00 130.00
C 65.43 132.05 65.12 134.05 66.00 136.00
C 65.14 136.96 61.00 135.95 63.00 138.00
C 69.07 143.44 79.29 143.53 84.92 150.08 C 90.55 156.64 97.47 159.21 102.25 166.75 C 107.02 174.29 111.89 178.77 114.69 186.30 C 117.50 193.84 121.22 199.43 123.22 207.78 C 125.22 216.13 128.00 226.85 128.00 236.00
C 128.16 236.46 129.86 237.60 130.00 238.00
C 132.04 227.01 134.79 217.47 138.00 208.00
C 138.52 206.47 137.61 202.03 139.93 199.93 C 142.25 197.82 144.24 196.75 145.00 193.00
C 148.75 174.54 163.03 162.94 177.25 149.25 C 191.47 135.57 215.90 134.13 234.00 129.00
C 234.25 128.75 234.25 127.25 234.00 127.00
C 225.75 124.66 217.17 124.55 209.00 122.00
C 204.12 120.48 199.70 119.30 195.00 117.00
C 155.08 97.48 138.83 59.92 130.00 18.00
C 129.86 18.28 128.20 18.57 128.00 19.00
M 130.00 208.00 
C 131.45 215.05 125.45 211.81 130.00 208.00 Z"/>
</g>
<g fill="None" fill-opacity="0.0" stroke="#FFFFFF" stroke-opacity="0.88" stroke-width="0.3"><path d="
M 118.00 62.00 
C 119.80 57.37 120.57 53.28 122.00 48.00
C 88.09 51.38 58.30 75.92 52.00 110.00
C 59.13 108.83 66.33 104.80 68.74 97.74 C 71.16 90.69 76.12 87.76 80.75 81.75 C 85.38 75.75 91.40 73.38 96.92 68.92 C 102.44 64.46 112.51 65.51 118.00 62.00 Z"/>
</g>
<g fill="None" fill-opacity="0.0" stroke="#FFFFFF" stroke-opacity="0.74" stroke-width="0.3"><path d="
M 153.00 63.00 
C 156.29 60.97 150.08 55.07 155.00 52.00
C 151.70 52.25 150.79 48.65 147.00 50.00
C 148.57 54.20 150.14 59.31 153.00 63.00 Z"/>
</g>
<g fill="None" fill-opacity="0.0" stroke="#FFFFFF" stroke-opacity="0.88" stroke-width="0.3"><path d="
M 153.00 63.00 
C 160.02 72.08 173.10 73.93 179.23 83.77 C 185.37 93.60 195.68 103.13 195.00 117.00
C 199.70 119.30 204.12 120.48 209.00 122.00
C 205.73 117.37 207.90 106.75 204.32 101.68 C 200.74 96.61 200.29 89.32 195.97 85.03 C 191.66 80.73 190.82 74.57 185.25 70.75 C 179.68 66.93 176.79 62.92 171.08 59.92 C 165.37 56.92 160.90 54.37 155.00 52.00
C 150.08 55.07 156.29 60.97 153.00 63.00 Z"/>
</g>
<g fill="None" fill-opacity="0.0" stroke="#000000" stroke-opacity="0.00" stroke-width="0.3"><path d="
M 64.00 130.00 
C 64.00 130.02 65.00 130.00 65.00 130.00
C 72.79 131.88 81.64 134.40 88.30 138.70 C 94.97 142.99 101.73 146.26 106.29 151.70 C 110.85 157.13 112.65 161.73 118.08 168.92 C 123.50 176.12 121.47 184.80 126.70 192.30 C 131.92 199.80 135.69 183.21 138.03 178.03 C 140.38 172.85 144.61 163.32 149.23 158.23 C 153.85 153.15 159.30 146.09 165.32 142.32 C 171.34 138.55 177.13 134.48 184.93 132.93 C 192.72 131.38 199.93 125.94 189.00 124.00 C 178.07 122.05 175.69 118.48 168.23 114.77 C 160.77 111.07 158.92 106.55 152.75 101.25 C 146.57 95.96 145.54 90.84 141.26 83.74 C 136.97 76.65 134.85 69.39 133.00 61.00
C 122.57 61.21 125.02 75.77 120.31 82.31 C 115.59 88.84 112.89 97.89 107.70 103.70 C 102.52 109.52 94.73 113.19 87.70 117.70 C 80.68 122.22 70.92 125.34 62.00 126.00
C 61.76 128.51 61.89 129.32 64.00 130.00
M 130.00 86.00 
C 132.96 96.44 135.22 104.54 141.90 113.10 C 148.58 121.66 158.17 124.12 168.00 127.00
C 169.23 127.36 170.75 126.72 172.00 127.00
C 172.63 129.53 169.47 128.90 168.00 129.00
C 147.81 135.01 134.11 146.35 130.00 169.00
C 129.82 169.97 130.17 171.03 130.00 172.00
C 129.59 174.36 128.49 174.29 128.00 172.00
C 127.65 171.73 128.02 168.53 128.00 168.00
C 127.56 156.34 121.74 150.88 116.90 142.10 C 112.06 133.32 97.94 133.07 90.00 129.00
C 87.75 127.85 87.80 128.19 90.00 127.00
C 94.07 123.00 104.47 125.39 109.25 120.25 C 114.02 115.10 118.06 113.64 121.92 106.92 C 125.77 100.20 126.45 93.51 128.00 86.00
C 128.26 84.72 127.80 83.29 128.00 82.00
C 130.53 81.37 129.90 84.53 130.00 86.00 Z"/>
</g>
<g fill="None" fill-opacity="0.0" stroke="#FFFFFF" stroke-opacity="0.40" stroke-width="0.3"><path d="
M 128.00 86.00 
C 128.04 85.86 129.75 85.75 130.00 86.00
C 129.90 84.53 130.53 81.37 128.00 82.00
C 127.80 83.29 128.26 84.72 128.00 86.00 Z"/>
</g>
<g fill="None" fill-opacity="0.0" stroke="#FFFFFF" stroke-opacity="0.93" stroke-width="0.3"><path d="
M 90.00 127.00 
C 89.75 127.25 89.76 128.83 90.00 129.00
C 97.94 133.07 112.06 133.32 116.90 142.10 C 121.74 150.88 127.56 156.34 128.00 168.00
C 128.19 168.41 129.87 168.73 130.00 169.00
C 134.11 146.35 147.81 135.01 168.00 129.00
C 168.23 128.65 168.24 127.31 168.00 127.00
C 158.17 124.12 148.58 121.66 141.90 113.10 C 135.22 104.54 132.96 96.44 130.00 86.00
C 129.75 85.75 128.04 85.86 128.00 86.00
C 126.45 93.51 125.77 100.20 121.92 106.92 C 118.06 113.64 114.02 115.10 109.25 120.25 C 104.47 125.39 94.07 123.00 90.00 127.00
M 130.00 106.00 
C 131.80 111.19 134.08 115.21 137.25 119.75 C 140.43 124.28 146.92 124.31 150.00 128.00
C 150.99 127.54 151.78 126.76 153.00 127.00
C 153.64 129.03 151.31 129.06 150.00 129.00
C 139.34 132.07 133.19 139.59 130.00 150.00
C 129.53 151.52 130.35 153.44 130.00 155.00
C 127.08 155.52 128.27 151.67 128.00 150.00
C 126.90 144.45 125.10 140.97 121.75 136.25 C 118.39 131.54 112.99 131.53 109.00 128.00
C 107.72 129.31 105.91 129.01 104.00 129.00
C 103.48 126.08 107.33 127.27 109.00 127.00
C 114.56 126.36 117.75 122.63 121.77 119.77 C 125.78 116.91 125.60 109.00 129.00 106.00
C 128.01 104.46 127.84 102.85 128.00 101.00
C 129.43 102.05 130.23 104.10 130.00 106.00 Z"/>
</g>
<g fill="None" fill-opacity="0.0" stroke="#FFFFFF" stroke-opacity="0.55" stroke-width="0.3"><path d="
M 129.00 106.00 
C 129.28 105.75 130.00 106.00 130.00 106.00
C 130.23 104.10 129.43 102.05 128.00 101.00
C 127.84 102.85 128.01 104.46 129.00 106.00 Z"/>
</g>
<g fill="None" fill-opacity="0.0" stroke="#000000" stroke-opacity="0.00" stroke-width="0.3"><path d="
M 109.00 127.00 
C 108.94 127.01 109.00 128.00 109.00 128.00
C 112.99 131.53 118.39 131.54 121.75 136.25 C 125.10 140.97 126.90 144.45 128.00 150.00
C 128.03 150.12 129.73 150.25 130.00 150.00
C 133.19 139.59 139.34 132.07 150.00 129.00
C 150.13 128.96 150.00 128.00 150.00 128.00
C 146.92 124.31 140.43 124.28 137.25 119.75 C 134.08 115.21 131.80 111.19 130.00 106.00
C 130.00 106.00 129.28 105.75 129.00 106.00
C 125.60 109.00 125.78 116.91 121.77 119.77 C 117.75 122.63 114.56 126.36 109.00 127.00
M 130.00 139.00 
C 129.54 139.69 130.37 141.25 130.00 142.00
C 127.97 142.64 127.94 140.31 128.00 139.00
C 124.36 134.69 123.17 128.21 116.00 128.00
C 121.90 126.79 129.31 121.45 128.00 114.00
C 131.61 119.38 134.61 126.79 142.00 128.00
C 136.48 129.09 132.07 133.70 130.00 139.00 Z"/>
</g>
<g fill="None" fill-opacity="0.0" stroke="#FFFFFF" stroke-opacity="0.95" stroke-width="0.3"><path d="
M 128.00 139.00 
C 128.21 139.25 129.65 139.23 130.00 139.00
C 132.07 133.70 136.48 129.09 142.00 128.00
C 134.61 126.79 131.61 119.38 128.00 114.00
C 129.31 121.45 121.90 126.79 116.00 128.00
C 123.17 128.21 124.36 134.69 128.00 139.00 Z"/>
</g>
<g fill="None" fill-opacity="0.0" stroke="#FFFFFF" stroke-opacity="0.68" stroke-width="0.3"><path d="
M 90.00 129.00 
C 89.76 128.83 89.75 127.25 90.00 127.00
C 87.80 128.19 87.75 127.85 90.00 129.00 Z"/>
</g>
<g fill="None" fill-opacity="0.0" stroke="#FFFFFF" stroke-opacity="0.54" stroke-width="0.3"><path d="
M 109.00 128.00 
C 109.00 128.00 108.94 127.01 109.00 127.00
C 107.33 127.27 103.48 126.08 104.00 129.00
C 105.91 129.01 107.72 129.31 109.00 128.00 Z"/>
</g>
<g fill="None" fill-opacity="0.0" stroke="#FFFFFF" stroke-opacity="0.42" stroke-width="0.3"><path d="
M 150.00 128.00 
C 150.00 128.00 150.13 128.96 150.00 129.00
C 151.31 129.06 153.64 129.03 153.00 127.00
C 151.78 126.76 150.99 127.54 150.00 128.00 Z"/>
</g>
<g fill="None" fill-opacity="0.0" stroke="#FFFFFF" stroke-opacity="0.73" stroke-width="0.3"><path d="
M 168.00 129.00 
C 169.47 128.90 172.63 129.53 172.00 127.00
C 170.75 126.72 169.23 127.36 168.00 127.00
C 168.24 127.31 168.23 128.65 168.00 129.00 Z"/>
</g>
<g fill="None" fill-opacity="0.0" stroke="#FFFFFF" stroke-opacity="0.76" stroke-width="0.3"><path d="
M 234.00 129.00 
C 235.47 128.90 238.63 129.53 238.00 127.00
C 236.74 126.73 235.23 127.35 234.00 127.00
C 234.25 127.25 234.25 128.75 234.00 129.00 Z"/>
</g>
<g fill="None" fill-opacity="0.0" stroke="#FFFFFF" stroke-opacity="0.88" stroke-width="0.3"><path d="
M 50.00 134.00 
C 50.73 169.83 79.68 199.73 112.00 206.00
C 110.15 189.61 92.01 186.55 82.77 176.23 C 73.53 165.91 62.17 153.85 63.00 138.00
C 61.00 135.95 65.14 136.96 66.00 136.00
C 65.12 134.05 65.43 132.05 65.00 130.00
C 65.00 130.00 64.00 130.02 64.00 130.00
C 64.24 135.01 53.73 135.00 50.00 134.00 Z"/>
</g>
<g fill="None" fill-opacity="0.0" stroke="#FFFFFF" stroke-opacity="0.42" stroke-width="0.3"><path d="
M 130.00 139.00 
C 129.65 139.23 128.21 139.25 128.00 139.00
C 127.94 140.31 127.97 142.64 130.00 142.00
C 130.37 141.25 129.54 139.69 130.00 139.00 Z"/>
</g>
<g fill="None" fill-opacity="0.0" stroke="#FFFFFF" stroke-opacity="0.87" stroke-width="0.3"><path d="
M 145.00 193.00 
C 144.24 196.75 142.25 197.82 139.93 199.93 C 137.61 202.03 138.52 206.47 138.00 208.00
C 170.42 203.75 200.21 179.07 207.00 146.00
C 201.01 148.84 193.08 150.87 189.92 156.92 C 186.77 162.98 183.34 168.98 178.68 173.68 C 174.03 178.38 167.90 181.45 163.03 186.03 C 158.15 190.60 148.82 189.50 145.00 193.00 Z"/>
</g>
<g fill="None" fill-opacity="0.0" stroke="#FFFFFF" stroke-opacity="0.52" stroke-width="0.3"><path d="
M 130.00 150.00 
C 129.73 150.25 128.03 150.12 128.00 150.00
C 128.27 151.67 127.08 155.52 130.00 155.00
C 130.35 153.44 129.53 151.52 130.00 150.00 Z"/>
</g>
<g fill="None" fill-opacity="0.0" stroke="#FFFFFF" stroke-opacity="0.58" stroke-width="0.3"><path d="
M 128.00 172.00 
C 128.32 172.24 129.89 172.21 130.00 172.00
C 130.17 171.03 129.82 169.97 130.00 169.00
C 129.87 168.73 128.19 168.41 128.00 168.00
C 128.02 168.53 127.65 171.73 128.00 172.00 Z"/>
</g>
<g fill="None" fill-opacity="0.0" stroke="#FFFFFF" stroke-opacity="0.29" stroke-width="0.3"><path d="
M 130.00 172.00 
C 129.89 172.21 128.32 172.24 128.00 172.00
C 128.49 174.29 129.59 174.36 130.00 172.00 Z"/>
</g>
<g fill="None" fill-opacity="0.0" stroke="#FFFFFF" stroke-opacity="0.62" stroke-width="0.3"><path d="
M 130.00 208.00 
C 125.45 211.81 131.45 215.05 130.00 208.00 Z"/>
</g>
<g fill="None" fill-opacity="0.0" stroke="#FFFFFF" stroke-opacity="0.44" stroke-width="0.3"><path d="
M 130.00 238.00 
C 129.86 237.60 128.16 236.46 128.00 236.00
C 128.00 238.67 128.00 241.33 128.00 244.00
C 131.31 244.22 129.63 240.00 130.00 238.00 Z"/>
</g>
<g fill="#000000" fill-opacity="0.00" stroke="None">
<path d="
M 0.00 256.00 
L 256.00 256.00
L 256.00 0.00
L 0.00 0.00
L 0.00 256.00
M 130.00 18.00 
C 138.83 59.92 155.08 97.48 195.00 117.00
C 195.68 103.13 185.37 93.60 179.23 83.77 C 173.10 73.93 160.02 72.08 153.00 63.00
C 150.14 59.31 148.57 54.20 147.00 50.00
C 150.79 48.65 151.70 52.25 155.00 52.00
C 160.90 54.37 165.37 56.92 171.08 59.92 C 176.79 62.92 179.68 66.93 185.25 70.75 C 190.82 74.57 191.66 80.73 195.97 85.03 C 200.29 89.32 200.74 96.61 204.32 101.68 C 207.90 106.75 205.73 117.37 209.00 122.00
C 217.17 124.55 225.75 124.66 234.00 127.00
C 235.23 127.35 236.74 126.73 238.00 127.00
C 238.63 129.53 235.47 128.90 234.00 129.00
C 215.90 134.13 191.47 135.57 177.25 149.25 C 163.03 162.94 148.75 174.54 145.00 193.00
C 148.82 189.50 158.15 190.60 163.03 186.03 C 167.90 181.45 174.03 178.38 178.68 173.68 C 183.34 168.98 186.77 162.98 189.92 156.92 C 193.08 150.87 201.01 148.84 207.00 146.00
C 200.21 179.07 170.42 203.75 138.00 208.00
C 134.79 217.47 132.04 227.01 130.00 238.00
C 129.63 240.00 131.31 244.22 128.00 244.00
C 128.00 241.33 128.00 238.67 128.00 236.00
C 128.00 226.85 125.22 216.13 123.22 207.78 C 121.22 199.43 117.50 193.84 114.69 186.30 C 111.89 178.77 107.02 174.29 102.25 166.75 C 97.47 159.21 90.55 156.64 84.92 150.08 C 79.29 143.53 69.07 143.44 63.00 138.00
C 62.17 153.85 73.53 165.91 82.77 176.23 C 92.01 186.55 110.15 189.61 112.00 206.00
C 79.68 199.73 50.73 169.83 50.00 134.00
C 40.48 131.46 30.50 128.67 20.00 129.00
C 28.63 125.07 43.52 125.38 53.68 121.68 C 63.83 117.97 74.07 114.62 82.23 108.23 C 90.39 101.84 97.74 96.25 103.75 87.75 C 109.76 79.25 115.70 70.61 118.00 62.00
C 112.51 65.51 102.44 64.46 96.92 68.92 C 91.40 73.38 85.38 75.75 80.75 81.75 C 76.12 87.76 71.16 90.69 68.74 97.74 C 66.33 104.80 59.13 108.83 52.00 110.00
C 58.30 75.92 88.09 51.38 122.00 48.00
C 124.26 39.66 127.79 29.65 128.00 19.00
C 128.05 16.67 127.96 14.33 128.00 12.00
C 131.23 11.65 129.57 16.11 130.00 18.00 Z"/>
</g>
<g fill="#FFFFFF" fill-opacity="0.42" stroke="None">
<path d="
M 128.00 19.00 
C 128.20 18.57 129.86 18.28 130.00 18.00
C 129.57 16.11 131.23 11.65 128.00 12.00
C 127.96 14.33 128.05 16.67 128.00 19.00 Z"/>
</g>
<g fill="#FFFFFF" fill-opacity="0.95" stroke="None">
<path d="
M 128.00 19.00 
C 127.79 29.65 124.26 39.66 122.00 48.00
C 120.57 53.28 119.80 57.37 118.00 62.00
C 115.70 70.61 109.76 79.25 103.75 87.75 C 97.74 96.25 90.39 101.84 82.23 108.23 C 74.07 114.62 63.83 117.97 53.68 121.68 C 43.52 125.38 28.63 125.07 20.00 129.00
C 30.50 128.67 40.48 131.46 50.00 134.00
C 53.73 135.00 64.24 135.01 64.00 130.00
C 61.89 129.32 61.76 128.51 62.00 126.00
C 70.92 125.34 80.68 122.22 87.70 117.70 C 94.73 113.19 102.52 109.52 107.70 103.70 C 112.89 97.89 115.59 88.84 120.31 82.31 C 125.02 75.77 122.57 61.21 133.00 61.00
C 134.85 69.39 136.97 76.65 141.26 83.74 C 145.54 90.84 146.57 95.96 152.75 101.25 C 158.92 106.55 160.77 111.07 168.23 114.77 C 175.69 118.48 178.07 122.05 189.00 124.00 C 199.93 125.94 192.72 131.38 184.93 132.93 C 177.13 134.48 171.34 138.55 165.32 142.32 C 159.30 146.09 153.85 153.15 149.23 158.23 C 144.61 163.32 140.38 172.85 138.03 178.03 C 135.69 183.21 131.92 199.80 126.70 192.30 C 121.47 184.80 123.50 176.12 118.08 168.92 C 112.65 161.73 110.85 157.13 106.29 151.70 C 101.73 146.26 94.97 142.99 88.30 138.70 C 81.64 134.40 72.79 131.88 65.00 130.00
C 65.43 132.05 65.12 134.05 66.00 136.00
C 65.14 136.96 61.00 135.95 63.00 138.00
C 69.07 143.44 79.29 143.53 84.92 150.08 C 90.55 156.64 97.47 159.21 102.25 166.75 C 107.02 174.29 111.89 178.77 114.69 186.30 C 117.50 193.84 121.22 199.43 123.22 207.78 C 125.22 216.13 128.00 226.85 128.00 236.00
C 128.16 236.46 129.86 237.60 130.00 238.00
C 132.04 227.01 134.79 217.47 138.00 208.00
C 138.52 206.47 137.61 202.03 139.93 199.93 C 142.25 197.82 144.24 196.75 145.00 193.00
C 148.75 174.54 163.03 162.94 177.25 149.25 C 191.47 135.57 215.90 134.13 234.00 129.00
C 234.25 128.75 234.25 127.25 234.00 127.00
C 225.75 124.66 217.17 124.55 209.00 122.00
C 204.12 120.48 199.70 119.30 195.00 117.00
C 155.08 97.48 138.83 59.92 130.00 18.00
C 129.86 18.28 128.20 18.57 128.00 19.00
M 130.00 208.00 
C 131.45 215.05 125.45 211.81 130.00 208.00 Z"/>
</g>
<g fill="#FFFFFF" fill-opacity="0.88" stroke="None">
<path d="
M 118.00 62.00 
C 119.80 57.37 120.57 53.28 122.00 48.00
C 88.09 51.38 58.30 75.92 52.00 110.00
C 59.13 108.83 66.33 104.80 68.74 97.74 C 71.16 90.69 76.12 87.76 80.75 81.75 C 85.38 75.75 91.40 73.38 96.92 68.92 C 102.44 64.46 112.51 65.51 118.00 62.00 Z"/>
</g>
<g fill="#FFFFFF" fill-opacity="0.74" stroke="None">
<path d="
M 153.00 63.00 
C 156.29 60.97 150.08 55.07 155.00 52.00
C 151.70 52.25 150.79 48.65 147.00 50.00
C 148.57 54.20 150.14 59.31 153.00 63.00 Z"/>
</g>
<g fill="#FFFFFF" fill-opacity="0.88" stroke="None">
<path d="
M 153.00 63.00 
C 160.02 72.08 173.10 73.93 179.23 83.77 C 185.37 93.60 195.68 103.13 195.00 117.00
C 199.70 119.30 204.12 120.48 209.00 122.00
C 205.73 117.37 207.90 106.75 204.32 101.68 C 200.74 96.61 200.29 89.32 195.97 85.03 C 191.66 80.73 190.82 74.57 185.25 70.75 C 179.68 66.93 176.79 62.92 171.08 59.92 C 165.37 56.92 160.90 54.37 155.00 52.00
C 150.08 55.07 156.29 60.97 153.00 63.00 Z"/>
</g>
<g fill="#000000" fill-opacity="0.00" stroke="None">
<path d="
M 64.00 130.00 
C 64.00 130.02 65.00 130.00 65.00 130.00
C 72.79 131.88 81.64 134.40 88.30 138.70 C 94.97 142.99 101.73 146.26 106.29 151.70 C 110.85 157.13 112.65 161.73 118.08 168.92 C 123.50 176.12 121.47 184.80 126.70 192.30 C 131.92 199.80 135.69 183.21 138.03 178.03 C 140.38 172.85 144.61 163.32 149.23 158.23 C 153.85 153.15 159.30 146.09 165.32 142.32 C 171.34 138.55 177.13 134.48 184.93 132.93 C 192.72 131.38 199.93 125.94 189.00 124.00 C 178.07 122.05 175.69 118.48 168.23 114.77 C 160.77 111.07 158.92 106.55 152.75 101.25 C 146.57 95.96 145.54 90.84 141.26 83.74 C 136.97 76.65 134.85 69.39 133.00 61.00
C 122.57 61.21 125.02 75.77 120.31 82.31 C 115.59 88.84 112.89 97.89 107.70 103.70 C 102.52 109.52 94.73 113.19 87.70 117.70 C 80.68 122.22 70.92 125.34 62.00 126.00
C 61.76 128.51 61.89 129.32 64.00 130.00
M 130.00 86.00 
C 132.96 96.44 135.22 104.54 141.90 113.10 C 148.58 121.66 158.17 124.12 168.00 127.00
C 169.23 127.36 170.75 126.72 172.00 127.00
C 172.63 129.53 169.47 128.90 168.00 129.00
C 147.81 135.01 134.11 146.35 130.00 169.00
C 129.82 169.97 130.17 171.03 130.00 172.00
C 129.59 174.36 128.49 174.29 128.00 172.00
C 127.65 171.73 128.02 168.53 128.00 168.00
C 127.56 156.34 121.74 150.88 116.90 142.10 C 112.06 133.32 97.94 133.07 90.00 129.00
C 87.75 127.85 87.80 128.19 90.00 127.00
C 94.07 123.00 104.47 125.39 109.25 120.25 C 114.02 115.10 118.06 113.64 121.92 106.92 C 125.77 100.20 126.45 93.51 128.00 86.00
C 128.26 84.72 127.80 83.29 128.00 82.00
C 130.53 81.37 129.90 84.53 130.00 86.00 Z"/>
</g>
<g fill="#FFFFFF" fill-opacity="0.40" stroke="None">
<path d="
M 128.00 86.00 
C 128.04 85.86 129.75 85.75 130.00 86.00
C 129.90 84.53 130.53 81.37 128.00 82.00
C 127.80 83.29 128.26 84.72 128.00 86.00 Z"/>
</g>
<g fill="#FFFFFF" fill-opacity="0.93" stroke="None">
<path d="
M 90.00 127.00 
C 89.75 127.25 89.76 128.83 90.00 129.00
C 97.94 133.07 112.06 133.32 116.90 142.10 C 121.74 150.88 127.56 156.34 128.00 168.00
C 128.19 168.41 129.87 168.73 130.00 169.00
C 134.11 146.35 147.81 135.01 168.00 129.00
C 168.23 128.65 168.24 127.31 168.00 127.00
C 158.17 124.12 148.58 121.66 141.90 113.10 C 135.22 104.54 132.96 96.44 130.00 86.00
C 129.75 85.75 128.04 85.86 128.00 86.00
C 126.45 93.51 125.77 100.20 121.92 106.92 C 118.06 113.64 114.02 115.10 109.25 120.25 C 104.47 125.39 94.07 123.00 90.00 127.00
M 130.00 106.00 
C 131.80 111.19 134.08 115.21 137.25 119.75 C 140.43 124.28 146.92 124.31 150.00 128.00
C 150.99 127.54 151.78 126.76 153.00 127.00
C 153.64 129.03 151.31 129.06 150.00 129.00
C 139.34 132.07 133.19 139.59 130.00 150.00
C 129.53 151.52 130.35 153.44 130.00 155.00
C 127.08 155.52 128.27 151.67 128.00 150.00
C 126.90 144.45 125.10 140.97 121.75 136.25 C 118.39 131.54 112.99 131.53 109.00 128.00
C 107.72 129.31 105.91 129.01 104.00 129.00
C 103.48 126.08 107.33 127.27 109.00 127.00
C 114.56 126.36 117.75 122.63 121.77 119.77 C 125.78 116.91 125.60 109.00 129.00 106.00
C 128.01 104.46 127.84 102.85 128.00 101.00
C 129.43 102.05 130.23 104.10 130.00 106.00 Z"/>
</g>
<g fill="#FFFFFF" fill-opacity="0.55" stroke="None">
<path d="
M 129.00 106.00 
C 129.28 105.75 130.00 106.00 130.00 106.00
C 130.23 104.10 129.43 102.05 128.00 101.00
C 127.84 102.85 128.01 104.46 129.00 106.00 Z"/>
</g>
<g fill="#000000" fill-opacity="0.00" stroke="None">
<path d="
M 109.00 127.00 
C 108.94 127.01 109.00 128.00 109.00 128.00
C 112.99 131.53 118.39 131.54 121.75 136.25 C 125.10 140.97 126.90 144.45 128.00 150.00
C 128.03 150.12 129.73 150.25 130.00 150.00
C 133.19 139.59 139.34 132.07 150.00 129.00
C 150.13 128.96 150.00 128.00 150.00 128.00
C 146.92 124.31 140.43 124.28 137.25 119.75 C 134.08 115.21 131.80 111.19 130.00 106.00
C 130.00 106.00 129.28 105.75 129.00 106.00
C 125.60 109.00 125.78 116.91 121.77 119.77 C 117.75 122.63 114.56 126.36 109.00 127.00
M 130.00 139.00 
C 129.54 139.69 130.37 141.25 130.00 142.00
C 127.97 142.64 127.94 140.31 128.00 139.00
C 124.36 134.69 123.17 128.21 116.00 128.00
C 121.90 126.79 129.31 121.45 128.00 114.00
C 131.61 119.38 134.61 126.79 142.00 128.00
C 136.48 129.09 132.07 133.70 130.00 139.00 Z"/>
</g>
<g fill="#FFFFFF" fill-opacity="0.95" stroke="None">
<path d="
M 128.00 139.00 
C 128.21 139.25 129.65 139.23 130.00 139.00
C 132.07 133.70 136.48 129.09 142.00 128.00
C 134.61 126.79 131.61 119.38 128.00 114.00
C 129.31 121.45 121.90 126.79 116.00 128.00
C 123.17 128.21 124.36 134.69 128.00 139.00 Z"/>
</g>
<g fill="#FFFFFF" fill-opacity="0.68" stroke="None">
<path d="
M 90.00 129.00 
C 89.76 128.83 89.75 127.25 90.00 127.00
C 87.80 128.19 87.75 127.85 90.00 129.00 Z"/>
</g>
<g fill="#FFFFFF" fill-opacity="0.54" stroke="None">
<path d="
M 109.00 128.00 
C 109.00 128.00 108.94 127.01 109.00 127.00
C 107.33 127.27 103.48 126.08 104.00 129.00
C 105.91 129.01 107.72 129.31 109.00 128.00 Z"/>
</g>
<g fill="#FFFFFF" fill-opacity="0.42" stroke="None">
<path d="
M 150.00 128.00 
C 150.00 128.00 150.13 128.96 150.00 129.00
C 151.31 129.06 153.64 129.03 153.00 127.00
C 151.78 126.76 150.99 127.54 150.00 128.00 Z"/>
</g>
<g fill="#FFFFFF" fill-opacity="0.73" stroke="None">
<path d="
M 168.00 129.00 
C 169.47 128.90 172.63 129.53 172.00 127.00
C 170.75 126.72 169.23 127.36 168.00 127.00
C 168.24 127.31 168.23 128.65 168.00 129.00 Z"/>
</g>
<g fill="#FFFFFF" fill-opacity="0.76" stroke="None">
<path d="
M 234.00 129.00 
C 235.47 128.90 238.63 129.53 238.00 127.00
C 236.74 126.73 235.23 127.35 234.00 127.00
C 234.25 127.25 234.25 128.75 234.00 129.00 Z"/>
</g>
<g fill="#FFFFFF" fill-opacity="0.88" stroke="None">
<path d="
M 50.00 134.00 
C 50.73 169.83 79.68 199.73 112.00 206.00
C 110.15 189.61 92.01 186.55 82.77 176.23 C 73.53 165.91 62.17 153.85 63.00 138.00
C 61.00 135.95 65.14 136.96 66.00 136.00
C 65.12 134.05 65.43 132.05 65.00 130.00
C 65.00 130.00 64.00 130.02 64.00 130.00
C 64.24 135.01 53.73 135.00 50.00 134.00 Z"/>
</g>
<g fill="#FFFFFF" fill-opacity="0.42" stroke="None">
<path d="
M 130.00 139.00 
C 129.65 139.23 128.21 139.25 128.00 139.00
C 127.94 140.31 127.97 142.64 130.00 142.00
C 130.37 141.25 129.54 139.69 130.00 139.00 Z"/>
</g>
<g fill="#FFFFFF" fill-opacity="0.87" stroke="None">
<path d="
M 145.00 193.00 
C 144.24 196.75 142.25 197.82 139.93 199.93 C 137.61 202.03 138.52 206.47 138.00 208.00
C 170.42 203.75 200.21 179.07 207.00 146.00
C 201.01 148.84 193.08 150.87 189.92 156.92 C 186.77 162.98 183.34 168.98 178.68 173.68 C 174.03 178.38 167.90 181.45 163.03 186.03 C 158.15 190.60 148.82 189.50 145.00 193.00 Z"/>
</g>
<g fill="#FFFFFF" fill-opacity="0.52" stroke="None">
<path d="
M 130.00 150.00 
C 129.73 150.25 128.03 150.12 128.00 150.00
C 128.27 151.67 127.08 155.52 130.00 155.00
C 130.35 153.44 129.53 151.52 130.00 150.00 Z"/>
</g>
<g fill="#FFFFFF" fill-opacity="0.58" stroke="None">
<path d="
M 128.00 172.00 
C 128.32 172.24 129.89 172.21 130.00 172.00
C 130.17 171.03 129.82 169.97 130.00 169.00
C 129.87 168.73 128.19 168.41 128.00 168.00
C 128.02 168.53 127.65 171.73 128.00 172.00 Z"/>
</g>
<g fill="#FFFFFF" fill-opacity="0.29" stroke="None">
<path d="
M 130.00 172.00 
C 129.89 172.21 128.32 172.24 128.00 172.00
C 128.49 174.29 129.59 174.36 130.00 172.00 Z"/>
</g>
<g fill="#FFFFFF" fill-opacity="0.62" stroke="None">
<path d="
M 130.00 208.00 
C 125.45 211.81 131.45 215.05 130.00 208.00 Z"/>
</g>
<g fill="#FFFFFF" fill-opacity="0.44" stroke="None">
<path d="
M 130.00 238.00 
C 129.86 237.60 128.16 236.46 128.00 236.00
C 128.00 238.67 128.00 241.33 128.00 244.00
C 131.31 244.22 129.63 240.00 130.00 238.00 Z"/>
</g>
</svg>